<svg version="1.1" xmlns="http://www.w3.org/2000/svg" xmlns:xlink="http://www.w3.org/1999/xlink" x="0px" y="0px"
	 viewBox="0 0 512 335" style="enable-background:new 0 0 512 335;" xml:space="preserve">
<g>
	<path d="M0,0v74.6v185.7V335h512v-74.6V74.6V0L0,0L0,0z M264.3,120.8c22.2,4,39.3,23.4,39.3,46.8
		c0,23.4-17,42.9-39.3,46.8V120.8z M16.6,91.2h38.5v152.5H16.6V91.2z M247.7,214.3c-22.2-4-39.3-23.4-39.3-46.8
		c0-23.4,17-42.9,39.3-46.8V214.3z M247.7,103.9c-31.4,4.1-55.8,31.1-55.8,63.6s24.4,59.5,55.8,63.6v87.4H16.6v-58.1h55.1V204
		c19.7,0,35.8-16.4,35.8-36.5S91.5,131,71.7,131V74.6H16.6V16.6h231.1V103.9z M71.7,187.4v-39.8c10.6,0,19.2,9,19.2,19.9
		S82.3,187.4,71.7,187.4z M495.4,243.8h-38.5V91.2h38.5V243.8z M495.4,74.6h-55.1V131H439c-19.8,0-35.8,16.4-35.8,36.5
		s16,36.5,35.8,36.5h1.3v56.4h55.1v58.1H264.3v-87.4c31.4-4.1,55.8-31.1,55.8-63.6s-24.4-59.5-55.8-63.6V16.6h231.1V74.6z
		 M440.3,147.6v39.8H439c-10.6,0-19.2-9-19.2-19.9s8.6-19.9,19.2-19.9H440.3z"/>
</g>
</svg>
